<svg width="47" height="47" viewBox="0 0 47 47" fill="none" xmlns="http://www.w3.org/2000/svg">
<g filter="url(#filter0_ii_2078_4853)">
<rect x="0.892578" y="0.128906" width="46" height="46" rx="23" fill="black"/>
<g clip-path="url(#clip0_2078_4853)">
<path d="M27.5696 20.3308C28.7842 21.1986 30.2722 21.7092 31.8792 21.7092V18.6184C31.575 18.6185 31.2717 18.5868 30.9741 18.5237V20.9566C29.3672 20.9566 27.8795 20.4461 26.6646 19.5784V25.8858C26.6646 29.0412 24.1054 31.5988 20.9487 31.5988C19.7708 31.5988 18.676 31.2429 17.7666 30.6325C18.8046 31.6933 20.2521 32.3513 21.8535 32.3513C25.0104 32.3513 27.5697 29.7937 27.5697 26.6382V20.3308H27.5696ZM28.6861 17.2126C28.0654 16.5348 27.6578 15.6589 27.5696 14.6905V14.293H26.712C26.9279 15.5238 27.6643 16.5753 28.6861 17.2126ZM19.7632 28.2113C19.4164 27.7568 19.2289 27.2008 19.2298 26.6291C19.2298 25.186 20.4004 24.0159 21.8446 24.0159C22.1137 24.0158 22.3812 24.0571 22.6377 24.1384V20.9785C22.3379 20.9374 22.0354 20.92 21.733 20.9264V23.3859C21.4764 23.3046 21.2087 23.2633 20.9395 23.2635C19.4954 23.2635 18.3249 24.4335 18.3249 25.8768C18.3249 26.8973 18.9099 27.7808 19.7632 28.2113Z" fill="#FF004F"/>
<path d="M26.6643 19.5783C27.8792 20.446 29.3669 20.9566 30.9738 20.9566V18.5237C30.0768 18.3327 29.2828 17.8642 28.6858 17.2126C27.6639 16.5752 26.9275 15.5237 26.7116 14.293H24.4589V26.6381C24.4537 28.0772 23.2852 29.2425 21.8441 29.2425C20.995 29.2425 20.2405 28.838 19.7628 28.2112C18.9096 27.7809 18.3245 26.8973 18.3245 25.8768C18.3245 24.4337 19.495 23.2636 20.9391 23.2636C21.2158 23.2636 21.4825 23.3066 21.7327 23.3859V20.9265C18.6314 20.9905 16.1372 23.5232 16.1372 26.6381C16.1372 28.1931 16.7583 29.6027 17.7663 30.6326C18.6758 31.2429 19.7705 31.599 20.9484 31.599C24.1052 31.599 26.6644 29.0411 26.6644 25.8858L26.6643 19.5783Z" fill="white"/>
<path d="M30.9735 18.5221V17.8645C30.1647 17.8656 29.3718 17.6392 28.6855 17.2111C29.293 17.8758 30.0929 18.3342 30.9735 18.5223M26.7113 14.2914C26.6907 14.1738 26.6749 14.0555 26.664 13.9366V13.5391H23.5534V25.8843C23.5485 27.3233 22.3799 28.4886 20.9388 28.4886C20.5302 28.4892 20.1273 28.3938 19.7624 28.2099C20.2402 28.8365 20.9946 29.241 21.8438 29.241C23.2848 29.241 24.4535 28.0758 24.4585 26.6366V14.2915L26.7113 14.2914ZM21.7325 20.9249V20.2246C21.4726 20.1892 21.2105 20.1714 20.9482 20.1714C17.7911 20.1714 15.2319 22.7293 15.2319 25.8843C15.2319 27.8624 16.2377 29.6056 17.7661 30.631C16.7581 29.6011 16.137 28.1915 16.137 26.6366C16.137 23.5217 18.6311 20.989 21.7325 20.9249Z" fill="#00F2EA"/>
</g>
</g>
<defs>
<filter id="filter0_ii_2078_4853" x="-6.10742" y="-6.87109" width="60" height="60" filterUnits="userSpaceOnUse" color-interpolation-filters="sRGB">
<feFlood flood-opacity="0" result="BackgroundImageFix"/>
<feBlend mode="normal" in="SourceGraphic" in2="BackgroundImageFix" result="shape"/>
<feColorMatrix in="SourceAlpha" type="matrix" values="0 0 0 0 0 0 0 0 0 0 0 0 0 0 0 0 0 0 127 0" result="hardAlpha"/>
<feOffset dx="-1" dy="-2"/>
<feGaussianBlur stdDeviation="1.5"/>
<feComposite in2="hardAlpha" operator="arithmetic" k2="-1" k3="1"/>
<feColorMatrix type="matrix" values="0 0 0 0 0 0 0 0 0 0 0 0 0 0 0 0 0 0 0.21 0"/>
<feBlend mode="normal" in2="shape" result="effect1_innerShadow_2078_4853"/>
<feColorMatrix in="SourceAlpha" type="matrix" values="0 0 0 0 0 0 0 0 0 0 0 0 0 0 0 0 0 0 127 0" result="hardAlpha"/>
<feOffset dx="2" dy="2"/>
<feGaussianBlur stdDeviation="4.45"/>
<feComposite in2="hardAlpha" operator="arithmetic" k2="-1" k3="1"/>
<feColorMatrix type="matrix" values="0 0 0 0 1 0 0 0 0 1 0 0 0 0 1 0 0 0 0.33 0"/>
<feBlend mode="normal" in2="effect1_innerShadow_2078_4853" result="effect2_innerShadow_2078_4853"/>
</filter>
<clipPath id="clip0_2078_4853">
<rect width="16.6471" height="18.8581" fill="white" transform="translate(15.2319 13.5391)"/>
</clipPath>
</defs>
</svg>
