<svg width="47" height="47" viewBox="0 0 47 47" fill="none" xmlns="http://www.w3.org/2000/svg">
<g filter="url(#filter0_ii_2078_4863)">
<rect x="0.892578" y="0.128906" width="46" height="46" rx="23" fill="#28A8EA"/>
<path d="M14.6026 22.9639C19.7277 20.731 23.1453 19.2589 24.8552 18.5476C29.7376 16.5169 30.7521 16.1641 31.4133 16.1525C31.5588 16.1499 31.884 16.1859 32.0946 16.3569C32.2724 16.5012 32.3214 16.6962 32.3448 16.833C32.3683 16.9698 32.3974 17.2815 32.3742 17.5251C32.1096 20.305 30.9648 27.0512 30.3824 30.1648C30.136 31.4822 29.6508 31.9239 29.181 31.9672C28.16 32.0611 27.3847 31.2925 26.3959 30.6443C24.8486 29.63 23.9744 28.9986 22.4725 28.0088C20.7367 26.8649 21.8619 26.2362 22.8511 25.2088C23.11 24.94 27.6084 20.8484 27.6954 20.4772C27.7062 20.4308 27.7164 20.2578 27.6136 20.1664C27.5108 20.075 27.3591 20.1063 27.2496 20.1311C27.0944 20.1663 24.6225 21.8001 19.8339 25.0326C19.1323 25.5144 18.4968 25.7492 17.9274 25.7368C17.2996 25.7233 16.0922 25.3819 15.1945 25.0902C14.0935 24.7322 13.2185 24.543 13.2947 23.9352C13.3344 23.6187 13.7703 23.2949 14.6026 22.9639Z" fill="white"/>
</g>
<defs>
<filter id="filter0_ii_2078_4863" x="-6.10742" y="-6.87109" width="60" height="60" filterUnits="userSpaceOnUse" color-interpolation-filters="sRGB">
<feFlood flood-opacity="0" result="BackgroundImageFix"/>
<feBlend mode="normal" in="SourceGraphic" in2="BackgroundImageFix" result="shape"/>
<feColorMatrix in="SourceAlpha" type="matrix" values="0 0 0 0 0 0 0 0 0 0 0 0 0 0 0 0 0 0 127 0" result="hardAlpha"/>
<feOffset dx="-1" dy="-2"/>
<feGaussianBlur stdDeviation="1.5"/>
<feComposite in2="hardAlpha" operator="arithmetic" k2="-1" k3="1"/>
<feColorMatrix type="matrix" values="0 0 0 0 0 0 0 0 0 0 0 0 0 0 0 0 0 0 0.21 0"/>
<feBlend mode="normal" in2="shape" result="effect1_innerShadow_2078_4863"/>
<feColorMatrix in="SourceAlpha" type="matrix" values="0 0 0 0 0 0 0 0 0 0 0 0 0 0 0 0 0 0 127 0" result="hardAlpha"/>
<feOffset dx="2" dy="2"/>
<feGaussianBlur stdDeviation="4.45"/>
<feComposite in2="hardAlpha" operator="arithmetic" k2="-1" k3="1"/>
<feColorMatrix type="matrix" values="0 0 0 0 1 0 0 0 0 1 0 0 0 0 1 0 0 0 0.33 0"/>
<feBlend mode="normal" in2="effect1_innerShadow_2078_4863" result="effect2_innerShadow_2078_4863"/>
</filter>
</defs>
</svg>
