<svg width="46" height="46" viewBox="0 0 46 46" fill="none" xmlns="http://www.w3.org/2000/svg">
<g filter="url(#filter0_ii_812_10684)">
<rect width="46" height="46" rx="23" fill="#EE0000"/>
<path d="M21.2 25.6183L25.871 23.0469L21.2 20.4754V25.6183ZM31.604 18.9069C31.721 19.3097 31.802 19.8497 31.856 20.5354C31.919 21.2212 31.946 21.8126 31.946 22.3269L32 23.0469C32 24.924 31.856 26.304 31.604 27.1869C31.379 27.9583 30.857 28.4554 30.047 28.6697C29.624 28.7812 28.85 28.8583 27.662 28.9097C26.492 28.9697 25.421 28.9954 24.431 28.9954L23 29.0469C19.229 29.0469 16.88 28.9097 15.953 28.6697C15.143 28.4554 14.621 27.9583 14.396 27.1869C14.279 26.784 14.198 26.244 14.144 25.5583C14.081 24.8726 14.054 24.2812 14.054 23.7669L14 23.0469C14 21.1697 14.144 19.7897 14.396 18.9069C14.621 18.1354 15.143 17.6383 15.953 17.424C16.376 17.3126 17.15 17.2354 18.338 17.184C19.508 17.124 20.579 17.0983 21.569 17.0983L23 17.0469C26.771 17.0469 29.12 17.184 30.047 17.424C30.857 17.6383 31.379 18.1354 31.604 18.9069Z" fill="white"/>
</g>
<defs>
<filter id="filter0_ii_812_10684" x="-7" y="-7" width="60" height="60" filterUnits="userSpaceOnUse" color-interpolation-filters="sRGB">
<feFlood flood-opacity="0" result="BackgroundImageFix"/>
<feBlend mode="normal" in="SourceGraphic" in2="BackgroundImageFix" result="shape"/>
<feColorMatrix in="SourceAlpha" type="matrix" values="0 0 0 0 0 0 0 0 0 0 0 0 0 0 0 0 0 0 127 0" result="hardAlpha"/>
<feOffset dx="-1" dy="-2"/>
<feGaussianBlur stdDeviation="1.5"/>
<feComposite in2="hardAlpha" operator="arithmetic" k2="-1" k3="1"/>
<feColorMatrix type="matrix" values="0 0 0 0 0 0 0 0 0 0 0 0 0 0 0 0 0 0 0.21 0"/>
<feBlend mode="normal" in2="shape" result="effect1_innerShadow_812_10684"/>
<feColorMatrix in="SourceAlpha" type="matrix" values="0 0 0 0 0 0 0 0 0 0 0 0 0 0 0 0 0 0 127 0" result="hardAlpha"/>
<feOffset dx="2" dy="2"/>
<feGaussianBlur stdDeviation="4.45"/>
<feComposite in2="hardAlpha" operator="arithmetic" k2="-1" k3="1"/>
<feColorMatrix type="matrix" values="0 0 0 0 1 0 0 0 0 1 0 0 0 0 1 0 0 0 0.33 0"/>
<feBlend mode="normal" in2="effect1_innerShadow_812_10684" result="effect2_innerShadow_812_10684"/>
</filter>
</defs>
</svg>
